<svg xmlns="http://www.w3.org/2000/svg" viewBox="0 0 24 24" fill="#25D366">
  <circle cx="12" cy="12" r="12"/>
  <path
    fill="#fff"
    d="M16.5 14.4c-.2-.1-1.2-.6-1.4-.7-.2-.1-.4-.1-.6.1-.2.2-.7.7-.8.8-.1.1-.3.2-.5.1-.2-.1-.9-.3-1.7-1-.6-.5-1-1.2-1.1-1.4-.1-.2 0-.4.1-.5.1-.1.2-.3.3-.4.1-.1.1-.3.2-.4.1-.2 0-.3 0-.4 0-.1-.6-1.4-.8-1.9-.2-.5-.4-.4-.6-.4h-.5c-.2 0-.4.1-.6.3-.2.2-.8.8-.8 2 0 1.2.8 2.3.9 2.5.1.2 1.6 2.4 3.9 3.4.5.2.9.3 1.2.4.5.1 1 .1 1.4.1.4-.1 1.2-.5 1.4-1 .2-.5.2-1 .1-1.1-.1-.1-.2-.2-.4-.3z"
  />
</svg>
